<svg
	fill="none"
	height="500"
	viewBox="0 0 500 500"
	width="500"
	xmlns="http://www.w3.org/2000/svg"
>
	<title>Vanguard SVG Logo</title>
	<path
		d="M277.727 3.66612C255.144 8.4826 236.055 19.1859 217.773 37.1138C192.231 61.999 181.477 93.0385 186.854 127.021L188.736 140.133L192.231 129.43C193.845 123.543 197.878 113.91 201.104 108.023C204.061 102.136 208.631 92.5033 211.32 86.6164C217.504 73.5049 235.248 55.577 249.229 48.8875C261.596 43.0007 297.085 40.5924 309.452 44.8737C316.98 47.5497 318.862 47.0145 327.734 40.0572C333.111 35.776 343.866 29.354 351.663 25.3403C359.189 21.5941 365.643 17.848 365.643 17.0452C365.643 14.3694 344.672 5.53918 331.229 2.59579C313.216 -1.15036 298.698 -0.88278 277.727 3.66612Z"
		fill="url(#paint0_linear_100_11)"
	/>
	<path
		d="M383.925 36.846C367.257 42.1977 353.006 50.2253 345.747 58.2526C341.177 63.0691 341.446 63.3368 350.049 65.2099C390.914 74.0401 417.8 118.191 408.661 161.807C399.518 205.423 371.825 229.237 333.111 226.562C309.721 224.689 292.514 215.323 270.737 192.579C261.596 182.946 247.615 170.102 239.55 164.483C231.753 158.596 221.805 149.231 217.772 143.879C213.74 138.26 209.707 134.513 208.631 135.316C207.825 136.119 207.018 145.485 207.018 155.92C207.018 175.186 212.933 193.114 222.343 203.55C225.838 207.296 226.914 215.323 227.182 239.941C227.72 269.107 231.215 291.584 237.13 302.555C239.012 306.569 243.314 307.371 264.553 307.371C339.026 307.371 408.661 264.291 432.857 202.747C435.814 195.79 443.343 182.678 450.064 173.581C472.646 143.076 478.293 106.15 464.85 77.251C447.375 39.522 418.875 25.3402 383.925 36.846Z"
		fill="url(#paint1_linear_100_11)"
	/>
	<path
		d="M268.317 74.5753C239.55 83.1378 226.376 115.783 243.851 133.979C247.884 138.26 253.53 143.076 255.95 144.414C260.252 146.822 260.521 145.752 258.908 134.781C256.756 117.388 263.478 101.601 279.609 87.1516C286.868 80.4622 291.976 74.5753 291.17 73.5049C289.019 71.3645 277.459 71.8997 268.317 74.5753Z"
		fill="url(#paint2_linear_100_11)"
	/>
	<path
		d="M144.913 97.0523C130.126 108.023 116.952 127.824 109.693 150.301C102.971 171.172 104.316 212.38 112.381 235.124C126.093 274.191 151.096 307.372 182.821 328.778C197.877 338.947 224.225 349.918 227.182 347.24C227.989 346.438 224.225 338.411 219.117 329.849C203.792 304.696 195.458 269.107 196.533 235.124C197.071 218.535 196.533 216.661 184.434 197.663C168.034 171.44 161.313 149.231 158.893 115.515L157.28 88.222L144.913 97.0523Z"
		fill="url(#paint3_linear_100_11)"
	/>
	<path
		d="M316.711 95.9819C303.538 99.9954 290.901 109.361 286.6 118.459C278.803 135.049 282.298 144.147 296.278 144.147C301.924 144.147 304.613 142.273 307.033 136.654C311.603 126.218 317.518 120.064 322.895 120.064C329.079 120.064 338.758 130.232 338.758 136.922C338.758 151.104 320.475 166.356 298.967 169.835L287.944 171.44L298.429 180.27C319.4 197.663 342.79 201.677 359.461 190.973C363.221 188.565 369.139 179.735 372.904 171.708C392.529 128.894 358.654 83.4056 316.711 95.9819Z"
		fill="url(#paint4_linear_100_11)"
	/>
	<path
		d="M472.646 183.481C468.882 187.762 465.118 195.255 464.043 200.338C461.625 214.788 445.761 245.56 432.586 261.347C399.518 301.485 337.413 330.115 276.383 333.326C261.865 334.128 250.035 335.734 250.035 336.806C250.035 340.819 270.199 356.339 282.029 361.691C308.914 373.73 361.071 370.253 398.982 353.664C461.625 326.37 497.382 279.543 497.382 224.421C497.382 198.733 489.854 176.524 480.982 176.256C480.175 176.256 476.411 179.467 472.646 183.481Z"
		fill="url(#paint5_linear_100_11)"
	/>
	<path
		d="M70.9779 334.128C42.4789 343.227 17.2067 370.789 5.37711 405.039C2.4197 413.602 0 422.164 0 424.306C0 428.585 32.2626 429.122 53.5021 425.109C85.4961 419.22 116.683 395.405 126.362 369.451C132.008 354.734 133.621 335.467 129.319 333.059C127.975 331.99 118.028 330.918 107.004 330.115C91.9486 329.046 83.6139 329.849 70.9779 334.128Z"
		fill="url(#paint6_linear_100_11)"
	/>
	<path
		d="M169.916 375.069C160.237 387.378 158.355 422.431 166.421 440.092C169.379 446.247 176.1 456.414 182.015 462.835C193.306 475.414 221.805 497.355 226.914 497.355C228.795 497.355 233.635 490.664 237.667 482.638C257.294 442.5 250.304 405.306 219.923 390.589C194.651 378.549 172.605 371.592 169.916 375.069Z"
		fill="url(#paint7_linear_100_11)"
	/>
	<defs>
		<linearGradient
			gradientUnits="userSpaceOnUse"
			id="paint0_linear_100_11"
			x1="275.573"
			x2="275.573"
			y1="6.10352e-05"
			y2="140.133"
		>
			<stop stop-color="#F43F5E" />
			<stop
				offset="1"
				stop-color="#881337"
			/>
		</linearGradient>
		<linearGradient
			gradientUnits="userSpaceOnUse"
			id="paint1_linear_100_11"
			x1="339.533"
			x2="339.533"
			y1="32.9564"
			y2="307.371"
		>
			<stop stop-color="#F43F5E" />
			<stop
				offset="1"
				stop-color="#881337"
			/>
		</linearGradient>
		<linearGradient
			gradientUnits="userSpaceOnUse"
			id="paint2_linear_100_11"
			x1="263.62"
			x2="263.62"
			y1="72.1842"
			y2="145.478"
		>
			<stop stop-color="#F43F5E" />
			<stop
				offset="1"
				stop-color="#881337"
			/>
		</linearGradient>
		<linearGradient
			gradientUnits="userSpaceOnUse"
			id="paint3_linear_100_11"
			x1="166.34"
			x2="166.34"
			y1="88.222"
			y2="347.649"
		>
			<stop stop-color="#F43F5E" />
			<stop
				offset="1"
				stop-color="#881337"
			/>
		</linearGradient>
		<linearGradient
			gradientUnits="userSpaceOnUse"
			id="paint4_linear_100_11"
			x1="330.575"
			x2="330.575"
			y1="93.8544"
			y2="196.877"
		>
			<stop stop-color="#F43F5E" />
			<stop
				offset="1"
				stop-color="#881337"
			/>
		</linearGradient>
		<linearGradient
			gradientUnits="userSpaceOnUse"
			id="paint5_linear_100_11"
			x1="373.709"
			x2="373.709"
			y1="176.256"
			y2="368.844"
		>
			<stop stop-color="#F43F5E" />
			<stop
				offset="1"
				stop-color="#881337"
			/>
		</linearGradient>
		<linearGradient
			gradientUnits="userSpaceOnUse"
			id="paint6_linear_100_11"
			x1="65.8826"
			x2="65.8826"
			y1="329.689"
			y2="427.837"
		>
			<stop stop-color="#10B981" />
			<stop
				offset="1"
				stop-color="#064E3B"
			/>
		</linearGradient>
		<linearGradient
			gradientUnits="userSpaceOnUse"
			id="paint7_linear_100_11"
			x1="205.026"
			x2="205.026"
			y1="374.174"
			y2="497.355"
		>
			<stop stop-color="#10B981" />
			<stop
				offset="1"
				stop-color="#064E3B"
			/>
		</linearGradient>
	</defs>
</svg>
