<svg
	fill="none"
	height="750"
	viewBox="0 0 750 750"
	width="750"
	xmlns="http://www.w3.org/2000/svg"
>
	<title>Vanguard SVG Logo</title>
	<rect
		fill="#0A0A0A"
		height="750"
		rx="50"
		width="750"
	/>
	<path
		d="M402.727 128.666C380.144 133.483 361.055 144.186 342.773 162.114C317.231 186.999 306.477 218.038 311.854 252.021L313.736 265.133L317.231 254.43C318.845 248.543 322.878 238.91 326.104 233.023C329.061 227.136 333.631 217.503 336.32 211.616C342.504 198.505 360.248 180.577 374.229 173.888C386.596 168.001 422.085 165.592 434.452 169.874C441.98 172.55 443.862 172.014 452.734 165.057C458.111 160.776 468.866 154.354 476.663 150.34C484.189 146.594 490.643 142.848 490.643 142.045C490.643 139.369 469.672 130.539 456.229 127.596C438.216 123.85 423.698 124.117 402.727 128.666Z"
		fill="url(#paint_1)"
	/>
	<path
		d="M508.925 161.846C492.257 167.198 478.006 175.225 470.747 183.253C466.177 188.069 466.446 188.337 475.049 190.21C515.914 199.04 542.8 243.191 533.661 286.807C524.518 330.423 496.825 354.237 458.111 351.562C434.721 349.689 417.514 340.323 395.737 317.579C386.596 307.946 372.615 295.102 364.55 289.483C356.753 283.596 346.805 274.231 342.772 268.879C338.74 263.26 334.707 259.513 333.631 260.316C332.825 261.119 332.018 270.485 332.018 280.92C332.018 300.186 337.933 318.114 347.343 328.55C350.838 332.296 351.914 340.323 352.182 364.941C352.72 394.107 356.215 416.584 362.13 427.555C364.012 431.569 368.314 432.371 389.553 432.371C464.026 432.371 533.661 389.291 557.857 327.747C560.814 320.79 568.343 307.678 575.064 298.581C597.646 268.076 603.293 231.15 589.85 202.251C572.375 164.522 543.875 150.34 508.925 161.846Z"
		fill="url(#paint_2)"
	/>
	<path
		d="M393.317 199.575C364.55 208.138 351.376 240.783 368.851 258.979C372.884 263.26 378.53 268.076 380.95 269.414C385.252 271.822 385.521 270.752 383.908 259.781C381.756 242.388 388.478 226.601 404.609 212.152C411.868 205.462 416.976 199.575 416.17 198.505C414.019 196.364 402.459 196.9 393.317 199.575Z"
		fill="url(#paint_3)"
	/>
	<path
		d="M269.913 222.052C255.126 233.023 241.952 252.824 234.693 275.301C227.971 296.172 229.316 337.38 237.381 360.124C251.093 399.191 276.096 432.372 307.821 453.778C322.877 463.947 349.225 474.918 352.182 472.24C352.989 471.438 349.225 463.411 344.117 454.849C328.792 429.696 320.458 394.107 321.533 360.124C322.071 343.535 321.533 341.661 309.434 322.663C293.034 296.44 286.313 274.231 283.893 240.515L282.28 213.222L269.913 222.052Z"
		fill="url(#paint_4)"
	/>
	<path
		d="M441.711 220.982C428.538 224.995 415.901 234.361 411.6 243.459C403.803 260.049 407.298 269.147 421.278 269.147C426.924 269.147 429.613 267.273 432.033 261.654C436.603 251.218 442.518 245.064 447.895 245.064C454.079 245.064 463.758 255.232 463.758 261.922C463.758 276.104 445.475 291.356 423.967 294.835L412.944 296.44L423.429 305.27C444.4 322.663 467.79 326.677 484.461 315.973C488.221 313.565 494.139 304.735 497.904 296.708C517.529 253.894 483.654 208.406 441.711 220.982Z"
		fill="url(#paint_5)"
	/>
	<path
		d="M597.646 308.481C593.882 312.762 590.118 320.255 589.043 325.338C586.625 339.788 570.761 370.56 557.586 386.347C524.518 426.485 462.413 455.115 401.383 458.326C386.865 459.128 375.035 460.734 375.035 461.806C375.035 465.819 395.199 481.339 407.029 486.691C433.914 498.73 486.071 495.253 523.982 478.664C586.625 451.37 622.382 404.543 622.382 349.421C622.382 323.733 614.854 301.524 605.982 301.256C605.175 301.256 601.411 304.467 597.646 308.481Z"
		fill="url(#paint_6)"
	/>
	<path
		d="M195.978 459.128C167.479 468.227 142.207 495.789 130.377 530.039C127.42 538.602 125 547.164 125 549.306C125 553.585 157.263 554.122 178.502 550.109C210.496 544.22 241.683 520.405 251.362 494.451C257.008 479.734 258.621 460.467 254.319 458.059C252.975 456.99 243.028 455.918 232.004 455.115C216.949 454.046 208.614 454.849 195.978 459.128Z"
		fill="url(#paint_7)"
	/>
	<path
		d="M294.916 500.069C285.237 512.378 283.355 547.431 291.421 565.092C294.379 571.247 301.1 581.414 307.015 587.835C318.306 600.414 346.805 622.355 351.914 622.355C353.795 622.355 358.635 615.664 362.667 607.638C382.294 567.5 375.304 530.306 344.923 515.589C319.651 503.549 297.605 496.592 294.916 500.069Z"
		fill="url(#paint_8)"
	/>
	<defs>
		<linearGradient
			gradientUnits="userSpaceOnUse"
			id="paint_1"
			x1="400.573"
			x2="400.573"
			y1="125"
			y2="265.133"
		>
			<stop stop-color="#F43F5E" />
			<stop
				offset="1"
				stop-color="#881337"
			/>
		</linearGradient>
		<linearGradient
			gradientUnits="userSpaceOnUse"
			id="paint_2"
			x1="464.533"
			x2="464.533"
			y1="157.956"
			y2="432.371"
		>
			<stop stop-color="#F43F5E" />
			<stop
				offset="1"
				stop-color="#881337"
			/>
		</linearGradient>
		<linearGradient
			gradientUnits="userSpaceOnUse"
			id="paint_3"
			x1="388.62"
			x2="388.62"
			y1="197.184"
			y2="270.478"
		>
			<stop stop-color="#F43F5E" />
			<stop
				offset="1"
				stop-color="#881337"
			/>
		</linearGradient>
		<linearGradient
			gradientUnits="userSpaceOnUse"
			id="paint_4"
			x1="291.34"
			x2="291.34"
			y1="213.222"
			y2="472.649"
		>
			<stop stop-color="#F43F5E" />
			<stop
				offset="1"
				stop-color="#881337"
			/>
		</linearGradient>
		<linearGradient
			gradientUnits="userSpaceOnUse"
			id="paint_5"
			x1="455.575"
			x2="455.575"
			y1="218.854"
			y2="321.877"
		>
			<stop stop-color="#F43F5E" />
			<stop
				offset="1"
				stop-color="#881337"
			/>
		</linearGradient>
		<linearGradient
			gradientUnits="userSpaceOnUse"
			id="paint_6"
			x1="498.709"
			x2="498.709"
			y1="301.256"
			y2="493.844"
		>
			<stop stop-color="#F43F5E" />
			<stop
				offset="1"
				stop-color="#881337"
			/>
		</linearGradient>
		<linearGradient
			gradientUnits="userSpaceOnUse"
			id="paint_7"
			x1="190.883"
			x2="190.883"
			y1="454.689"
			y2="552.837"
		>
			<stop stop-color="#10B981" />
			<stop
				offset="1"
				stop-color="#064E3B"
			/>
		</linearGradient>
		<linearGradient
			gradientUnits="userSpaceOnUse"
			id="paint_8"
			x1="330.026"
			x2="330.026"
			y1="499.174"
			y2="622.355"
		>
			<stop stop-color="#10B981" />
			<stop
				offset="1"
				stop-color="#064E3B"
			/>
		</linearGradient>
	</defs>
</svg>
